<svg xmlns="http://www.w3.org/2000/svg" width="23" height="24" viewBox="0 0 23 24" fill="none">
  <path fill-rule="evenodd" clip-rule="evenodd" d="M12.072 21.45c-2.973-.714-5.835-.667-8.85-.753a1.055 1.055 0 0 0-1.095 1.01c-.018.573.447 1.052 1.035 1.07 2.859.08 5.58.015 8.402.693.571.137 1.15-.204 1.288-.762a1.038 1.038 0 0 0-.78-1.258Zm5.758-6.068C13.299 10.536 7.468 5.969 1.58 2.778a1.078 1.078 0 0 0-1.447.405c-.284.502-.1 1.135.415 1.414C6.24 7.683 11.879 12.099 16.26 16.785a1.083 1.083 0 0 0 1.503.065 1.023 1.023 0 0 0 .068-1.469Zm4.952-1.228c.748-4.432-.528-9-2.334-13.03a1.076 1.076 0 0 0-1.4-.537c-.54.23-.784.844-.55 1.37 1.645 3.67 2.865 7.822 2.184 11.858a1.043 1.043 0 0 0 .877 1.195 1.063 1.063 0 0 0 1.223-.856Z" fill="#fff"/>
</svg>
